<svg width="299" height="253" viewBox="0 0 299 253" fill="none" xmlns="http://www.w3.org/2000/svg">
<path d="M243.742 222.614C233.301 198.378 224.097 98.8842 183.857 77.5016C143.633 56.1314 32.3966 92.1155 2.35814 94.3121M246.36 221.341C236.603 197.399 228.436 100.211 187.632 78.7489C146.831 57.3146 32.4295 90.9439 1.58704 92.6316" stroke="white" stroke-width="2" stroke-linecap="round"/>
<path d="M48.168 67.374C31.2889 75.4873 18.9212 82.1024 1.58594 92.6308ZM48.168 67.374C38.9099 70.8094 30.0506 77.2058 1.58594 92.6308Z" stroke="white" stroke-width="2" stroke-linecap="round"/>
<path d="M54.8086 101.006C36.0266 99.6449 21.7936 96.8387 1.58223 92.6312ZM54.8086 101.006C44.3205 96.9576 34.02 96.0221 1.58223 92.6312Z" stroke="white" stroke-width="2" stroke-linecap="round"/>
</svg>
